Visionary Canadian filmmaker Guy Maddin takes viewers on a surreal journey into the psyche of a desperate gangster backed into a dangerous corner in this surreal, psycho-sexual take on Homer's Odyssey. Late one night, a group of gangsters shoot their way into the living room of a large house and wait anxiously for the arrival of their leader, Ulysses Pick (Jason Patric). Ulysses has a knack for getting out of tense situations, and with the cops all around his cohorts need him now more than ever. But when Ulysses arrives with a teenage girl and a bound young man in tow, some of his henchmen start to think it's time for a new boss to take over. An already tense situation turns downright surreal as Ulysses begins venturing through the labyrinthine house in search of his wife Hyacinth (Isabella Rossellini), who remains locked in her room somewhere on an upper floor. Meanwhile, Hyacinth's father offers cryptic commentary on the unfolding events, and the harder Ulysses searches for his wife the more secrets he begins to uncover about his eccentric family.

_________________________________________


Format : AVI
Format/Info : Audio Video Interleave
File size : 1.36 GiB
Duration : 1h 33mn
Overall bit rate : 2 090 Kbps
Writing application : VirtualDubMod 1.5.10.2 (build 2540/release)
Writing library : VirtualDubMod build 2540/release

Video
ID : 0
Format : MPEG-4 Visual
Format profile : Advanced Simple@L5
Format settings, BVOP : 2
Format settings, QPel : No
Format settings, GMC : No warppoints
Format settings, Matrix : Default (H.263)
Muxing mode : Packed bitstream
Codec ID : XVID
Codec ID/Hint : XviD
Duration : 1h 33mn
Bit rate : 1 921 Kbps
Width : 624 pixels
Height : 352 pixels
Display aspect ratio : 16:9
Frame rate : 23.976 fps
Color space : YUV
Chroma subsampling : 4:2:0
Bit depth : 8 bits
Scan type : Progressive
Compression mode : Lossy
Bits/(Pixel*Frame) : 0.365
Stream size : 1.25 GiB (92%)
Writing library : XviD 1.2.1 (UTC 2008-12-04)

Audio
ID : 1
Format : MPEG Audio
Format version : Version 1
Format profile : Layer 3
Mode : Joint stereo
Mode extension : MS Stereo
Codec ID : 55
Codec ID/Hint : MP3
Duration : 1h 33mn
Bit rate mode : Constant
Bit rate : 160 Kbps
Channel(s) : 2 channels
Sampling rate : 44.1 KHz
Compression mode : Lossy
Stream size : 107 MiB (8%)
Alignment : Split accross interleaves
Interleave, duration : 42 ms (1.00 video frame)
Interleave, preload duration : 500 ms
Writing library : LAME3.98.2